<svg width="27" height="31" viewBox="0 0 27 31" fill="none" xmlns="http://www.w3.org/2000/svg">
<path d="M26.209 21.4648L20.3027 18.9336C20.1445 18.8809 19.9863 18.8281 19.7754 18.8281C19.4062 18.8281 19.0371 19.0391 18.8262 19.3027L16.1895 22.5195C12.0762 20.5684 8.80664 17.2988 6.85547 13.1855L10.0723 10.5488C10.3359 10.3379 10.5469 9.96875 10.5469 9.54688C10.5469 9.38867 10.4941 9.23047 10.4414 9.07227L7.91016 3.16602C7.69922 2.69141 7.22461 2.375 6.69727 2.375C6.64453 2.375 6.53906 2.42773 6.43359 2.42773L0.949219 3.69336C0.369141 3.85156 0 4.32617 0 4.90625C0 18.459 10.916 29.375 24.4688 29.375C25.0488 29.375 25.5234 29.0059 25.6816 28.4258L26.9473 22.9414C26.9473 22.8359 26.9473 22.7305 26.9473 22.6777C26.9473 22.1504 26.6309 21.6758 26.209 21.4648Z" fill="#FF7000"/>
</svg>
