<svg width="24" height="22" viewBox="0 0 24 22" fill="none" xmlns="http://www.w3.org/2000/svg">
<path d="M21.75 11H18V8C18 6.35938 19.3125 5 21 5H21.375C21.9844 5 22.5 4.53125 22.5 3.875V1.625C22.5 1.01562 21.9844 0.5 21.375 0.5H21C16.8281 0.5 13.5 3.875 13.5 8V19.25C13.5 20.5156 14.4844 21.5 15.75 21.5H21.75C22.9688 21.5 24 20.5156 24 19.25V13.25C24 12.0312 22.9688 11 21.75 11ZM8.25 11H4.5V8C4.5 6.35938 5.8125 5 7.5 5H7.875C8.48438 5 9 4.53125 9 3.875V1.625C9 1.01562 8.48438 0.5 7.875 0.5H7.5C3.32812 0.5 0 3.875 0 8V19.25C0 20.5156 0.984375 21.5 2.25 21.5H8.25C9.46875 21.5 10.5 20.5156 10.5 19.25V13.25C10.5 12.0312 9.46875 11 8.25 11Z" fill="#FF7000"/>
</svg>
