<svg width="24" height="24" viewBox="0 0 24 24" fill="none" xmlns="http://www.w3.org/2000/svg">
<path fill-rule="evenodd" clip-rule="evenodd" d="M19 18.2559C19 18.6659 18.666 18.9999 18.256 18.9999H17V16.9999H19V18.2559ZM5 18.2559V16.9999H7V18.9999H5.744C5.334 18.9999 5 18.6659 5 18.2559ZM5.744 4.99988H7V6.99988H5V5.74388C5 5.33388 5.334 4.99988 5.744 4.99988ZM19 5.74388V6.99988H17V4.99988H18.256C18.666 4.99988 19 5.33388 19 5.74388ZM17 14.9999H19V12.9999H17V14.9999ZM17 10.9999H19V8.99988H17V10.9999ZM9 18.9999H15V4.99988H9V18.9999ZM5 14.9999H7V12.9999H5V14.9999ZM5 10.9999H7V8.99988H5V10.9999ZM18.256 2.99988H5.744C4.231 2.99988 3 4.23188 3 5.74388V18.2559C3 19.7689 4.231 20.9999 5.744 20.9999H18.256C19.769 20.9999 21 19.7689 21 18.2559V5.74388C21 4.23188 19.769 2.99988 18.256 2.99988Z" fill="white"/>
<mask id="mask0" mask-type="alpha" maskUnits="userSpaceOnUse" x="3" y="2" width="18" height="19">
<path fill-rule="evenodd" clip-rule="evenodd" d="M19 18.2559C19 18.6659 18.666 18.9999 18.256 18.9999H17V16.9999H19V18.2559ZM5 18.2559V16.9999H7V18.9999H5.744C5.334 18.9999 5 18.6659 5 18.2559ZM5.744 4.99988H7V6.99988H5V5.74388C5 5.33388 5.334 4.99988 5.744 4.99988ZM19 5.74388V6.99988H17V4.99988H18.256C18.666 4.99988 19 5.33388 19 5.74388ZM17 14.9999H19V12.9999H17V14.9999ZM17 10.9999H19V8.99988H17V10.9999ZM9 18.9999H15V4.99988H9V18.9999ZM5 14.9999H7V12.9999H5V14.9999ZM5 10.9999H7V8.99988H5V10.9999ZM18.256 2.99988H5.744C4.231 2.99988 3 4.23188 3 5.74388V18.2559C3 19.7689 4.231 20.9999 5.744 20.9999H18.256C19.769 20.9999 21 19.7689 21 18.2559V5.74388C21 4.23188 19.769 2.99988 18.256 2.99988Z" fill="white"/>
</mask>
<g mask="url(#mask0)">
<rect width="24" height="24" fill="white"/>
</g>
</svg>
